<svg width="822" height="232" viewBox="0 0 822 232" fill="none" xmlns="http://www.w3.org/2000/svg">
<path d="M1.63474 125.538C1.14448 127.82 0.817642 130.103 0.817642 132.385C0.817642 133.2 0.817642 133.852 0.981062 134.668C1.96158 141.678 4.08603 148.363 8.49836 154.395C16.5059 165.318 29.0892 172.329 40.692 178.687C59.8121 188.959 107.367 204.447 108.348 231.837H109.818V215.533C108.838 186.187 91.5154 172.492 66.5123 159.449C53.4387 152.602 39.7115 146.732 27.2916 138.58C21.7353 134.994 16.3425 130.918 11.7667 126.027C9.31545 123.418 7.191 120.646 5.55681 117.549C5.22997 117.06 5.06655 116.408 4.73971 115.918C3.92261 117.875 2.45184 121.625 1.63474 125.538Z" fill="white"/>
<path d="M108.184 0C107.203 27.39 59.6481 43.0415 40.528 53.1497C28.9252 59.5081 16.3419 66.5186 8.33439 77.442C0 88.8545 0 102.386 0 115.918C0 122.277 0 128.635 0.817097 134.668C0 128.146 3.26839 119.342 4.73917 116.081C5.066 115.429 5.22942 114.94 5.55626 114.288C7.02704 111.517 8.82465 109.234 10.9491 106.788C15.3614 101.734 20.5909 97.8215 25.9837 94.0717C38.2402 85.9199 51.9674 79.8876 65.041 73.04C90.371 59.9972 108.511 46.4652 109.654 16.3036V0H108.184Z" fill="white"/>
<path d="M64.2241 71.8988C60.6288 73.8552 56.8702 75.6486 53.1115 77.442C43.6332 82.1701 33.9915 86.8981 25.0034 92.9304C18.4666 97.3324 13.564 101.408 9.64195 105.81C7.35408 108.419 5.55646 110.864 4.08569 113.473C3.75885 113.962 3.59543 114.614 3.26859 115.429C1.79782 118.853 0.327042 122.929 0.327042 127.983C0.327042 130.266 0.490461 132.548 0.8173 135.157C1.96124 142.982 4.24911 149.178 8.17118 154.558C11.7664 159.449 16.3422 163.851 22.5521 168.253C16.5056 164.014 12.4201 159.612 8.98827 154.884C5.39305 149.667 2.94175 142.982 1.79782 135.32C1.30756 132.385 1.47098 130.918 1.47098 128.961C1.47098 124.07 3.10517 119.179 4.57595 115.918C4.90279 115.266 5.06621 114.614 5.39304 114.125C6.7004 111.68 8.49802 109.234 10.7859 106.625C14.5445 102.223 19.2837 98.3106 25.8205 93.9086C34.6451 88.0393 44.2869 83.1483 53.7652 78.5833C57.3604 76.7899 61.1191 74.8335 64.8777 73.0401C89.5541 60.3233 105.079 47.9325 108.674 24.7814C104.752 47.1174 88.4101 59.345 64.2241 71.8988ZM109.491 0V16.3036C109.328 19.2382 109.164 22.1729 108.674 24.7814C109.164 22.1729 109.491 19.2382 109.491 16.3036V0Z" fill="white"/>
<path d="M6.37399 117.386H5.39282V119.016H6.37399V117.386Z" fill="white"/>
<path d="M108.02 81.5179C107.04 107.604 62.9165 122.929 44.6135 132.548C19.2835 145.754 1.14394 159.449 0 189.448V205.751H1.47078C2.45129 179.665 46.5746 164.34 64.8775 154.721C90.2076 141.678 108.347 127.983 109.491 97.9845V81.5179H108.02Z" fill="white"/>
<path d="M64.2239 153.58C61.2823 155.047 57.5237 156.84 53.4382 158.797C32.6839 168.253 1.47078 182.763 0 205.099V205.751H1.47078V205.099C2.77813 183.741 33.6644 169.394 54.0918 159.938C58.0139 158.145 61.7726 156.351 64.8775 154.721C90.371 141.515 106.223 128.635 109.164 103.691C105.896 127.983 89.227 140.537 64.2239 153.58ZM109.491 81.6809V97.9845C109.491 99.9409 109.328 101.897 109.001 103.854C109.164 101.897 109.328 99.9409 109.491 97.9845V81.6809Z" fill="white"/>
<path d="M229.114 91.137L226.826 95.539C225.846 95.0499 216.204 90.6479 205.418 90.6479C184.991 90.6479 169.956 106.788 169.956 125.048C169.956 143.961 184.337 159.449 204.274 159.449C211.465 159.449 220.289 157.656 228.46 150.319V130.918H206.399V126.027H233.69V152.275C223.721 161.895 213.753 164.666 204.274 164.666C181.559 164.666 164.073 147.058 164.073 124.885C164.073 102.876 181.886 85.1047 204.765 85.1047C212.936 85.2677 222.087 87.7132 229.114 91.137Z" fill="white"/>
<path d="M255.098 106.136L256.078 117.06C259.183 109.56 266.374 106.136 274.545 106.136V112.006C264.903 112.006 256.405 117.06 256.405 129.124V163.851H250.849V106.136H255.098Z" fill="white"/>
<path d="M293.175 106.136V140.048C293.175 151.786 298.077 159.449 312.131 159.449C322.263 159.449 330.924 150.971 330.924 140.537V106.136H336.481V163.851H332.232L331.415 152.602C327.493 160.753 319.812 164.666 311.314 164.666C295.299 164.666 287.782 155.862 287.782 140.7V106.136H293.175Z" fill="white"/>
<path d="M411.981 134.994C411.981 150.808 400.705 164.666 384.036 164.666C374.721 164.666 364.752 159.938 361.32 150.808V182.6H355.764V105.973H360.176L360.994 119.342C365.406 109.071 375.701 104.995 384.036 104.995C400.378 105.158 411.981 118.69 411.981 134.994ZM360.83 134.994C360.83 149.178 370.799 159.775 383.545 159.775C396.456 159.775 406.424 148.852 406.424 134.994C406.424 121.136 396.456 110.212 383.545 110.212C370.799 110.212 360.83 121.136 360.83 134.994Z" fill="white"/>
<path d="M453.489 105.158C469.994 105.158 483.231 118.201 483.231 134.994C483.231 151.46 469.994 164.666 453.489 164.666C437.31 164.666 424.073 151.46 424.073 134.994C424.073 118.364 437.31 105.158 453.489 105.158ZM429.63 134.994C429.63 148.526 440.252 159.775 453.489 159.775C466.889 159.775 477.675 148.526 477.675 134.994C477.675 121.299 467.053 110.212 453.489 110.212C440.089 110.212 429.63 121.136 429.63 134.994Z" fill="white"/>
<path d="M553.012 86.0829V100.593H513.464V119.668H547.128V133.689H513.464V163.851H497.939V86.0829H553.012Z" fill="white"/>
<path d="M578.178 82.4961V148.037C578.178 149.504 578.995 149.993 580.139 149.993C581.773 149.993 583.081 149.83 585.532 149.667V161.732C585.042 162.058 578.995 163.688 574.419 163.688C566.739 163.688 562.98 158.634 562.98 151.949V82.4961H578.178Z" fill="white"/>
<path d="M620.994 104.995C638.97 104.995 647.631 118.853 647.631 134.179C647.631 138.091 647.141 140.863 647.141 140.863H608.247C608.901 149.015 616.091 152.112 622.955 152.112C629.492 152.112 635.538 150.319 639.297 148.689L644.363 159.938C638.643 163.199 630.309 164.992 622.628 164.992C605.142 164.992 592.396 153.254 592.396 135.646C592.232 117.712 603.835 104.995 620.994 104.995ZM633.087 130.103C632.76 123.744 630.309 118.201 621.811 118.201C614.621 118.201 609.391 122.277 607.921 130.103H633.087Z" fill="white"/>
<path d="M672.798 106.136V140.048C672.798 146.895 676.23 150.319 683.747 150.319C689.794 150.319 694.86 147.221 694.86 140.211V106.136H710.384V163.851H698.455L696.494 157.33C692.735 162.384 687.342 164.992 679.988 164.992C664.954 164.992 657.273 156.188 657.273 140.863V106.136H672.798Z" fill="white"/>
<path d="M736.368 106.625L738.329 115.755C741.924 108.419 747.971 106.136 758.103 106.136V121.951H756.142C746.337 121.951 739.31 125.701 739.31 138.091V163.851H723.948V106.625H736.368Z" fill="white"/>
<path d="M776.733 106.136L790.95 147.71H791.277L805.985 106.136H822.163L797.324 167.438C793.075 178.035 788.826 182.6 779.347 182.6C775.262 182.6 771.177 182.111 766.928 180.644L769.542 166.786C771.503 167.112 776.406 167.927 778.857 167.764C781.145 167.764 782.289 165.481 783.106 163.362L760.554 105.973H776.733V106.136Z" fill="white"/>
</svg>